# xmcd
#
# Track frame offsets: 
#        150
#        27452
#        46879
#        69681
#        87008
#        108535
#        136437
#        155339
#        172741
#        203343
#
# Disc length: 3045 seconds
#
# Revision: 2
# Processed by: cddbd v1.4PL0 Copyright (c) Steve Scherf et al.
# Submitted via: ExactAudioCopy v0.90b4
#
DISCID=7a0be30a
DTITLE=John Campbell - One Believer
DYEAR=1991
DGENRE=Blues
TTITLE0=Devil In My Closet
TTITLE1=Angel Of Sorrow
TTITLE2=Wild Streak
TTITLE3=Couldn't Do Nothin'
TTITLE4=Tiny Coffin
TTITLE5=World Of Trouble
TTITLE6=Voodoo Edge
TTITLE7=Person To Person
TTITLE8=Take Me Down
TTITLE9=One Believer
EXTD=
EXTT0=
EXTT1=
EXTT2=
EXTT3=
EXTT4=
EXTT5=
EXTT6=
EXTT7=
EXTT8=
EXTT9=
PLAYORDER=
